# xmcd
#
# Track frame offsets:
#	150
#	31071
#	56284
#	93992
#	121408
#	162534
#	194957
#	221242
#	251458
#	285742
#
# Disc length: 4255 seconds
#
# Revision: 1
# Processed by: cddbd v1.5.2PL0 Copyright (c) Steve Scherf et al.
# Submitted via: audiograbber 1.83.01
#
DISCID=94109d0a
DTITLE=Ibiza Sonica - Ibiza Sonica Vol.2
DYEAR=2010
DGENRE=House
TTITLE0=And If - Beyond Senses (Pezzner Remix)
TTITLE1=The Quasar and the Pressure - Take me Over (Eelke Kleijn Remix)
TTITLE2=Nomi and Rampa - Inside (Pete Gooding Remix)
TTITLE3=Crazy P. - Stop space Return (Roberto Rodriguez Vocal Remix)
TTITLE4=Valentin Huedo - Come back Home
TTITLE5=Bassfort - Dixtritt (Jimpster Remix)
TTITLE6=Pete Dafeet - Fuzzy (Nacho Marco Remix)
TTITLE7=Agent Matteo - Tuesday has Gone (Sendos Fuera Mix)
TTITLE8=Christian Fischer - Black Coffee
TTITLE9=Charles Webster Ft. Samantha James - Together as one (GarcyNoise Big Ro
TTITLE9=om Mix)
EXTD=CRG
EXTT0=
EXTT1=
EXTT2=
EXTT3=
EXTT4=
EXTT5=
EXTT6=
EXTT7=
EXTT8=
EXTT9=
PLAYORDER=
